<svg xmlns="http://www.w3.org/2000/svg" viewBox="0 0 720 420" role="img" aria-labelledby="title desc">
  <title id="title">Hyundai i10 blanco</title>
  <desc id="desc">Ilustracion de un auto compacto blanco tipo Hyundai i10 para la tarjeta principal.</desc>
  <defs>
    <linearGradient id="paint" x1="0" x2="1" y1="0" y2="1">
      <stop offset="0" stop-color="#ffffff"/>
      <stop offset="0.55" stop-color="#e9eef2"/>
      <stop offset="1" stop-color="#cbd5df"/>
    </linearGradient>
    <linearGradient id="glass" x1="0" x2="1" y1="0" y2="1">
      <stop offset="0" stop-color="#d8fbff"/>
      <stop offset="1" stop-color="#113a56"/>
    </linearGradient>
    <filter id="shadow" x="-20%" y="-20%" width="140%" height="150%">
      <feDropShadow dx="0" dy="26" stdDeviation="20" flood-color="#00162f" flood-opacity=".55"/>
    </filter>
  </defs>
  <ellipse cx="378" cy="344" rx="258" ry="38" fill="#00162f" opacity=".42"/>
  <g filter="url(#shadow)">
    <path d="M118 263c16-63 50-104 103-124 47-18 154-22 246-8 54 9 88 33 118 77l30 8c30 8 49 30 52 63l4 48H89l8-36c4-18 9-25 21-28z" fill="url(#paint)"/>
    <path d="M207 145c39-21 152-25 242-11 47 7 78 27 104 66H148c17-27 36-45 59-55z" fill="#f8fbfd"/>
    <path d="M234 151c50-12 118-14 185-7l-20 58H181c15-25 33-42 53-51z" fill="url(#glass)"/>
    <path d="M429 146c50 8 82 25 105 56h-97z" fill="url(#glass)"/>
    <path d="M120 265h538l11 61H90l8-36c4-16 9-23 22-25z" fill="#eef3f7"/>
    <path d="M480 244c56 0 115 10 168 29 6 2 10 8 12 15l4 21h-93c-12-27-38-45-69-45s-57 18-69 45H262c-12-27-38-45-69-45s-57 18-69 45H91l7-30c2-9 10-15 19-15z" fill="#f9fbfc"/>
    <path d="M110 285h78c15 0 27 12 27 27v17H88l6-27c2-10 6-17 16-17z" fill="#132f45"/>
    <path d="M562 285h86c8 0 15 6 17 14l5 30H540v-17c0-15 10-27 22-27z" fill="#132f45"/>
    <circle cx="193" cy="320" r="47" fill="#172a39"/>
    <circle cx="193" cy="320" r="27" fill="#dfe8ef"/>
    <circle cx="193" cy="320" r="12" fill="#7890a3"/>
    <circle cx="502" cy="320" r="47" fill="#172a39"/>
    <circle cx="502" cy="320" r="27" fill="#dfe8ef"/>
    <circle cx="502" cy="320" r="12" fill="#7890a3"/>
    <path d="M282 248h166c13 0 24 10 24 23v36H258v-35c0-13 10-24 24-24z" fill="#0f2538"/>
    <rect x="319" y="260" width="91" height="34" rx="7" fill="#ffffff"/>
    <text x="365" y="284" text-anchor="middle" font-family="Arial, sans-serif" font-size="25" font-weight="700" fill="#202a33">i10</text>
    <path d="M115 252c25-38 70-57 133-57h274c42 0 83 11 122 34" fill="none" stroke="#ffffff" stroke-width="11" stroke-linecap="round" opacity=".75"/>
    <path d="M132 248c30-30 69-45 116-45h261c43 0 80 9 111 28" fill="none" stroke="#a5b4c2" stroke-width="3" stroke-linecap="round" opacity=".65"/>
    <path d="M575 239c31 3 56 12 73 29" fill="none" stroke="#d7a72a" stroke-width="10" stroke-linecap="round"/>
    <path d="M116 247c18-3 34-3 49 1" fill="none" stroke="#25d7c7" stroke-width="9" stroke-linecap="round"/>
  </g>
</svg>
